PathFileType	4	(X/Y/Z)	C:/Users/opensim2020/Desktop/walking_exp_matlab/subject03_walking09_straight_02.trc	
DataRate	CameraRate	NumFrames	NumMarkers	Units	OrigDataRate	OrigDataStartFrame	OrigNumFrames	
100.00	100.00	8	47	mm	100.00	1972	364	
Frame#	Time	LFHD			RFHD			LBHD			RBHD			C7			T10			CLAV			STRN			RBAK			LSHO			LUPA			LELB			LFRM			LWRA			LWRB			LFIN			RSHO			RUPA			RELB			RFRM			RWRA			RWRB			RFIN			LASI			RASI			LPSI			RPSI			LTHI			LKNE			LTIB			LANK			LHEE			LTOE			RTHI			RKNE			RTIB			RANK			RHEE			RTOE			*39			*40			*41			*42			*43			*44			*45			*46			
		X1	Y1	Z1	X2	Y2	Z2	X3	Y3	Z3	X4	Y4	Z4	X5	Y5	Z5	X6	Y6	Z6	X7	Y7	Z7	X8	Y8	Z8	X9	Y9	Z9	X10	Y10	Z10	X11	Y11	Z11	X12	Y12	Z12	X13	Y13	Z13	X14	Y14	Z14	X15	Y15	Z15	X16	Y16	Z16	X17	Y17	Z17	X18	Y18	Z18	X19	Y19	Z19	X20	Y20	Z20	X21	Y21	Z21	X22	Y22	Z22	X23	Y23	Z23	X24	Y24	Z24	X25	Y25	Z25	X26	Y26	Z26	X27	Y27	Z27	X28	Y28	Z28	X29	Y29	Z29	X30	Y30	Z30	X31	Y31	Z31	X32	Y32	Z32	X33	Y33	Z33	X34	Y34	Z34	X35	Y35	Z35	X36	Y36	Z36	X37	Y37	Z37	X38	Y38	Z38	X39	Y39	Z39	X40	Y40	Z40	X41	Y41	Z41	X42	Y42	Z42	X43	Y43	Z43	X44	Y44	Z44	X45	Y45	Z45	X46	Y46	Z46	X47	Y47	Z47	

137	1.360	1492.90417	572.55017	1629.93835	1362.37488	594.45209	1632.35986	1508.37292	694.65369	1572.67334	1379.14685	711.19452	1575.45618	1452.90320	720.07733	1418.80310	1458.53577	748.32806	1106.29138	1441.37390	596.53119	1344.54712	1447.19519	551.35022	1180.50342	1363.89624	778.03491	1242.99158	1598.31055	623.04675	1384.93799	1667.87524	606.78479	1190.05457	1676.94580	584.74133	1068.34424	1671.65759	538.83624	946.83612	1636.00537	502.24414	834.75745	1688.35156	522.62097	834.54718	1674.63171	494.52274	755.17657	1286.60144	655.56854	1362.87073	1223.17212	650.67920	1137.03369	1210.84448	633.21936	1026.18713	1207.62976	616.15948	890.19006	1237.98267	580.00348	794.61304	1199.53320	618.53925	790.05688	1205.88879	595.92786	718.27734	1565.97363	574.69128	940.06598	1327.29419	582.57758	947.34418	1520.72888	736.79053	967.27435	1372.42993	741.28656	975.99487	1613.70276	657.14453	638.60950	1592.53601	678.92249	459.78607	1589.93640	825.12604	319.56174	1547.28577	955.79913	156.24838	1509.15588	1006.14398	157.65755	1504.98938	871.14520	34.18110	1291.05432	612.56409	652.27393	1327.90515	571.08154	475.75562	1325.94604	587.34668	287.64752	1375.05554	571.03851	72.05168	1429.01404	608.83331	39.16941	1386.53613	426.38840	37.36415	1455.92224	668.37531	1681.73523																					 
138	1.370	1491.88440	565.40771	1630.49109	1361.26074	586.98651	1632.71509	1506.99683	687.46704	1573.07629	1377.67310	703.56885	1575.67505	1451.44434	712.35840	1418.89233	1456.61304	740.37518	1106.53064	1440.36023	588.67639	1344.98804	1446.26111	543.22290	1180.78967	1362.05151	769.54626	1243.18176	1597.11267	615.59955	1385.38733	1666.96875	600.49445	1190.42542	1676.55701	580.36401	1068.66235	1671.73999	535.85614	946.40692	1636.77942	500.51324	833.28442	1688.95935	521.41064	833.74847	1675.59119	495.40363	753.40045	1285.50439	647.14093	1363.41943	1221.32764	641.55737	1137.78613	1208.78247	624.08411	1026.99487	1205.28906	606.83752	891.00165	1235.93457	571.21387	795.27332	1196.90881	609.14355	790.93756	1203.41797	586.44037	718.98999	1564.64978	567.23853	940.49976	1326.21265	574.45007	947.20355	1519.06958	729.45105	967.61609	1370.66797	733.10797	976.60870	1614.11011	645.60040	637.91724	1593.75647	663.74091	458.62109	1590.47461	811.57581	320.86832	1547.94995	945.89832	161.17976	1509.10388	995.57422	165.21452	1505.76465	868.67096	34.05316	1289.58875	607.89532	652.14923	1327.25977	567.49707	475.38904	1325.55322	584.99390	287.59567	1375.34412	570.55164	71.84187	1429.19702	608.71136	39.23930	1386.65955	426.04794	37.18930	1454.55005	661.15070	1682.33081																					 
139	1.380	1490.84143	558.28076	1630.79773	1360.18579	579.45721	1632.90430	1505.65417	680.27972	1573.24597	1376.32581	696.00537	1575.76050	1450.04468	704.64355	1418.88049	1454.63623	732.55359	1106.59143	1439.46960	580.82086	1345.19495	1445.37695	535.16754	1181.00098	1360.27344	761.12274	1243.05469	1596.07703	608.25940	1385.58240	1666.11829	594.27856	1190.37512	1675.49084	574.81836	1068.24133	1671.86145	532.59882	945.50690	1637.68005	498.60660	831.70673	1689.59155	520.18561	832.64038	1676.51172	496.05591	751.46570	1284.35632	638.67609	1363.63110	1219.49512	632.50311	1138.23767	1206.61658	615.00531	1027.52100	1202.92249	597.29059	891.55011	1233.21924	561.17474	796.05560	1194.23108	599.36749	791.55707	1201.00500	576.64771	719.42993	1563.60254	560.05896	940.53497	1325.19128	566.46777	946.76868	1517.45032	722.39301	967.53955	1368.98511	725.12067	977.06329	1614.41821	634.07739	637.03284	1594.54199	648.44873	457.42719	1590.62463	797.31305	321.76895	1548.26526	935.22839	165.76775	1509.05591	984.39948	172.43788	1507.31812	864.50031	35.41490	1288.58545	602.37982	652.19568	1326.11060	563.38507	475.17041	1325.16785	582.44226	287.47409	1375.53137	570.15839	71.74596	1429.34753	608.58612	39.25468	1386.80005	425.78119	37.02980	1453.29004	653.89734	1682.27246																					 
140	1.390	1489.91138	551.11670	1630.98169	1359.19580	571.97302	1633.02600	1504.36084	673.05908	1573.20471	1374.98755	688.47217	1575.56567	1448.62146	696.89551	1418.74866	1452.72314	724.79950	1106.49536	1438.60254	573.06390	1345.23779	1444.62280	527.45245	1180.87061	1358.61023	752.91150	1242.83191	1595.12378	600.95868	1385.36560	1665.27673	588.23779	1190.00806	1675.32874	570.19470	1067.86035	1672.02295	529.26056	944.37457	1638.61047	496.70752	829.87372	1690.31799	518.59760	831.36029	1677.47131	496.44791	749.47638	1283.22815	630.31165	1363.55884	1217.64319	623.59924	1138.40552	1204.46704	605.91998	1027.73083	1200.55835	587.69446	891.85675	1230.87256	551.41919	796.40680	1191.48889	589.48389	791.82928	1198.54578	566.54578	719.75598	1562.68652	553.25513	940.30603	1324.28442	558.65234	946.18695	1515.99536	715.65521	967.10919	1367.40100	717.44928	977.35309	1614.42126	622.70288	635.95966	1595.40015	633.48938	456.34973	1591.07715	783.09528	322.56351	1547.58044	923.86792	170.16945	1508.34998	973.03772	178.70406	1510.01074	857.40796	37.85390	1286.72180	598.35278	652.45197	1325.18860	559.29333	474.99994	1324.66479	579.78314	287.45895	1375.66577	569.90265	71.71922	1429.41455	608.53650	39.29939	1386.89868	425.60205	36.92230	1451.85022	646.72852	1682.26892																					 
141	1.400	1489.05762	543.95679	1631.10645	1358.26245	564.54425	1633.04907	1503.77283	666.29034	1573.23083	1373.50452	680.83032	1575.24841	1447.53552	689.39661	1418.89343	1450.92627	717.22266	1106.32275	1437.77063	565.41150	1345.06067	1444.02051	519.96460	1180.54309	1356.97314	744.74841	1242.49817	1594.33582	593.77563	1384.97241	1664.56934	582.26215	1189.35486	1674.99268	565.05920	1067.11304	1672.22717	525.87720	943.00946	1639.46594	494.71378	827.97229	1691.09399	516.91577	829.90814	1678.34155	496.53372	747.40332	1282.17407	621.97174	1363.27393	1215.80017	614.74176	1138.34387	1202.37573	596.81067	1027.68542	1198.18884	577.95782	891.98376	1228.53564	541.50995	796.63953	1188.98962	579.16467	791.90289	1196.00049	556.12701	719.73114	1562.00500	546.60089	939.81665	1323.52686	551.01202	945.78851	1514.70361	709.03583	966.28131	1366.01599	710.11658	977.57111	1614.26526	611.39929	635.00800	1595.23779	617.72003	455.18085	1591.20105	768.58875	323.47046	1547.39587	912.82593	174.92403	1506.97803	961.36060	183.72803	1513.98523	847.66650	40.55088	1286.05420	592.15460	652.58466	1324.58337	555.17804	474.87311	1324.05640	577.15430	287.41995	1375.76074	569.70514	71.70702	1429.44336	608.53619	39.34272	1386.92920	425.42868	36.81188	1450.80029	639.69733	1682.34668																					 
142	1.410	1488.25464	536.84369	1631.20129	1357.40833	557.01318	1633.03174	1503.01855	659.46906	1572.94373	1372.31091	673.20715	1574.84802	1446.26270	681.63269	1418.88416	1449.27417	709.79480	1106.17090	1437.04089	557.82397	1344.84973	1443.43787	512.65356	1180.16174	1355.40649	736.87726	1242.30396	1593.63293	586.76062	1384.34155	1663.93042	576.39221	1188.49817	1674.58899	560.11194	1066.20544	1672.42798	522.47162	941.53406	1640.35657	492.83203	826.18225	1691.79907	515.04950	828.39044	1679.26135	496.17093	745.42377	1281.09607	613.54126	1362.81067	1214.05933	605.85559	1138.10254	1200.21460	587.70215	1027.53308	1195.91589	568.04462	891.91351	1226.35352	531.55029	796.65631	1186.55481	568.66455	791.84027	1193.65283	545.45685	719.94012	1561.49316	540.13312	939.10278	1322.50928	543.29980	945.43848	1513.59485	702.59497	965.31750	1364.88147	703.11853	977.78998	1614.12085	600.33618	634.18237	1595.34912	602.39404	454.39200	1590.80090	754.19745	324.81772	1546.63965	900.41144	178.89549	1505.33521	948.88947	187.54175	1518.51758	835.97333	43.49645	1285.39526	586.37042	652.86261	1323.62744	550.97083	475.10080	1323.50305	574.70581	287.43375	1375.82642	569.51025	71.64873	1429.42896	608.53381	39.38047	1386.92407	425.31348	36.73970																								 
143	1.420	1487.50134	529.75018	1631.33057	1356.60718	549.55231	1633.03467	1502.01514	652.25684	1572.66541	1371.17041	665.57813	1574.43445	1445.25623	674.14801	1419.18604	1447.88330	702.63898	1106.17261	1436.36621	550.33026	1344.55481	1442.98779	505.50967	1179.71533	1353.96167	729.26544	1242.39575	1593.05603	579.92578	1383.62317	1663.79248	570.26996	1187.67151	1674.32642	555.20569	1065.18884	1672.62842	519.00836	940.00037	1641.00989	490.98621	824.14215	1692.48267	513.09521	826.88678	1680.16589	495.49393	743.60077	1280.12256	605.29651	1362.29297	1212.37842	597.05719	1137.76758	1198.17773	578.44916	1027.27563	1193.68982	558.16864	891.72656	1224.19214	521.30804	796.79510	1184.08972	558.18634	791.73773	1191.30847	534.23022	720.04889	1561.06470	533.80774	938.40161	1321.99524	536.27136	945.36414	1512.71179	696.16418	964.27814	1363.94226	696.35333	978.01550	1614.11365	589.54657	633.93066	1595.11169	586.57190	453.93768	1590.15039	739.77509	326.58255	1546.19751	887.17474	182.18105	1503.85498	935.55750	190.22192	1522.87378	822.74713	46.36890	1284.83740	580.38251	653.16272	1323.22437	546.98724	474.89963	1323.01941	572.32770	287.36209	1375.85913	569.38342	71.71615	1429.43115	608.53003	39.42466	1386.94006	425.26541	36.68258	1448.68518	625.60773	1681.62781																					 
144	1.430	1486.78040	522.59991	1631.37646	1355.83313	542.10999	1633.05969	1500.50952	644.36487	1572.15283	1370.36438	657.92383	1574.02197	1444.02832	666.29260	1419.27612	1446.67334	695.68872	1106.30688	1435.77173	542.83569	1344.27600	1442.51270	498.52234	1179.23926	1352.54529	721.83136	1242.72351	1592.60449	573.24835	1383.00745	1663.26318	564.81195	1186.78516	1674.08923	550.34076	1064.18347	1672.77014	515.52216	938.61969	1641.62903	488.81161	822.33344	1693.15710	510.76752	825.50989	1681.01123	494.38281	741.97473	1279.21130	596.91595	1361.79724	1210.82349	588.21460	1137.47107	1196.20776	569.16608	1027.06531	1191.56384	548.21069	891.70520	1222.24585	511.12302	796.93945	1181.87537	547.39185	791.69446	1188.98242	523.08453	720.27209	1560.66797	527.47711	937.77588	1321.25208	529.31744	945.45117	1511.98315	689.65759	963.30652	1363.15295	689.72052	978.18665	1613.91467	578.70099	634.04376	1595.30591	571.43005	454.24377	1589.40149	724.98181	328.30957	1545.60840	872.76355	184.44070	1502.82019	921.47394	191.97723	1526.55273	808.19153	49.04435	1284.44214	574.11670	653.49176	1322.61340	542.93054	474.89810	1322.63440	570.11182	287.31946	1375.91687	569.29871	71.77769	1429.45410	608.55334	39.46063	1386.96277	425.20090	36.65483	1447.53076	618.61151	1681.52454																					 
